<svg xmlns="http://www.w3.org/2000/svg" width="50" height="50" viewBox="0 0 50 50">
  <g id="Group_7" data-name="Group 7" transform="translate(-871 -259)">
    <g id="Group_1" data-name="Group 1" transform="translate(871 259)">
      <rect id="Rectangle_2" data-name="Rectangle 2" width="50" height="50" rx="12" fill="#fff"/>
    </g>
    <path id="Icon_material-location-on" data-name="Icon material-location-on" d="M16.126,3C11.357,3,7.5,7.2,7.5,12.389c0,7.042,8.626,17.436,8.626,17.436s8.626-10.395,8.626-17.436C24.752,7.2,20.9,3,16.126,3Zm0,12.742a3.227,3.227,0,0,1-3.081-3.353,3.227,3.227,0,0,1,3.081-3.353,3.227,3.227,0,0,1,3.081,3.353A3.227,3.227,0,0,1,16.126,15.742Z" transform="translate(879.874 267.587)"/>
  </g>
</svg>
